<svg width="200" height="200" viewBox="0 0 200 200" fill="none" xmlns="http://www.w3.org/2000/svg">
<g clip-path="url(#clip0_617_26110)">
<mask id="mask0_617_26110" style="mask-type:luminance" maskUnits="userSpaceOnUse" x="0" y="0" width="200" height="200">
<path d="M199.918 0H0V200H199.918V0Z" fill="white"/>
</mask>
<g mask="url(#mask0_617_26110)">
<path d="M91.8974 0C92.5949 0 93.2512 0 93.9487 0C94.7691 0.328205 95.5895 0.328205 96.4103 0C98.8716 0 101.333 0 103.754 0C104.574 0.328205 105.395 0.328205 106.215 0C106.913 0 107.569 0 108.267 0C111.179 0.451283 114.092 0.410257 117.005 0.656413C123.979 1.23077 130.544 3.44615 136.984 5.94871C146.256 9.51796 154.749 14.482 162.544 20.6769C173.087 29.0462 181.579 39.0564 188.184 50.7896C192.738 58.9129 195.979 67.5692 198.236 76.595C199.384 81.1079 199.302 85.7438 199.713 90.2975C199.754 90.7488 199.549 91.2413 199.918 91.6513C199.918 92.3488 199.918 93.005 199.918 93.7025C199.589 94.5233 199.589 95.3438 199.918 96.1642C199.918 98.6258 199.918 101.087 199.918 103.549C199.589 104.369 199.589 105.19 199.918 106.01C199.918 106.831 199.918 107.651 199.918 108.472C199.384 111.18 199.467 113.887 199.22 116.636C198.482 124.882 195.774 132.554 192.574 140.103C188.225 150.359 182.154 159.508 174.646 167.754C159.795 184.041 141.497 194.298 119.959 198.81C116.964 199.426 113.928 199.508 110.933 199.672C101.538 200.164 92.1437 200.205 82.8307 199.139C74.9949 198.236 67.5691 195.693 60.3074 192.575C49.9282 188.144 40.6563 182.072 32.2871 174.482C15.9179 159.549 5.66145 141.21 1.18965 119.59C0.574263 116.636 0.492209 113.6 0.328107 110.564C-0.1642 101.333 -0.205226 92.0617 0.820413 82.8308C1.72298 74.7896 4.34862 67.1592 7.54862 59.7333C11.9794 49.4358 18.0512 40.2052 25.5999 31.918C40.0819 16.082 57.8462 5.94871 78.7282 1.2718C82.6666 0.410257 86.7282 0.492308 90.7487 0.205128C91.1591 0.164103 91.5691 0.328205 91.8974 0Z" fill="#FE4244"/>
<path d="M96.4099 0C95.5895 0.574358 94.7687 0.574358 93.9482 0C94.7687 0 95.5895 0 96.4099 0Z" fill="#FE7073"/>
<path d="M106.216 0C105.395 0.574358 104.574 0.574358 103.754 0C104.616 0 105.395 0 106.216 0Z" fill="#FE7073"/>
<path d="M199.918 96.1639C199.344 95.3434 199.385 94.5226 199.918 93.7022C199.918 94.5226 199.918 95.3434 199.918 96.1639Z" fill="#FE7073"/>
<path d="M199.918 106.01C199.385 105.19 199.344 104.369 199.918 103.549C199.918 104.369 199.918 105.19 199.918 106.01Z" fill="#FE7073"/>
<path d="M153.847 42.3797C150.77 46.4826 147.734 50.503 144.739 54.5234C133.703 69.1697 122.668 83.8159 111.59 98.4209C110.606 99.7338 110.975 100.472 111.755 101.539C125.539 119.754 139.242 138.011 152.985 156.226C153.232 156.554 153.478 156.883 153.683 157.17C153.355 157.785 152.821 157.539 152.411 157.539C144.985 157.539 137.56 157.539 130.134 157.58C129.068 157.58 128.411 157.293 127.755 156.431C113.683 137.928 99.5701 119.467 85.4163 101.046C84.678 100.103 84.7601 99.5284 85.4571 98.6259C99.5701 80.2463 113.642 61.8259 127.714 43.4055C128.247 42.708 128.739 42.1338 129.847 42.1338C137.601 42.1747 145.396 42.1747 153.15 42.1747C153.273 42.1747 153.437 42.2568 153.847 42.3797Z" fill="#FEFEFE"/>
<path d="M53.5389 99.8975C53.5389 81.3537 53.5797 62.8104 53.498 44.2667C53.498 42.5437 53.9493 42.0921 55.6314 42.1333C61.0055 42.2562 66.3797 42.2154 71.7951 42.1333C73.2722 42.0921 73.7647 42.4204 73.7647 44.0204C73.7235 81.2308 73.7235 118.482 73.7647 155.692C73.7647 157.21 73.3543 157.62 71.8364 157.62C66.3797 157.538 60.9235 157.497 55.4672 157.62C53.7439 157.662 53.498 157.046 53.498 155.528C53.5389 136.985 53.5389 118.441 53.5389 99.8975Z" fill="#FEFEFE"/>
</g>
<path fill-rule="evenodd" clip-rule="evenodd" d="M100 0C155.228 0 200 44.7715 200 100C200 155.228 155.228 200 100 200C44.7715 200 0 155.228 0 100C0 44.7715 44.7715 0 100 0ZM100 5C47.5329 5 5 47.5329 5 100C5 152.467 47.5329 195 100 195C152.467 195 195 152.467 195 100C195 47.5329 152.467 5 100 5Z" fill="url(#paint0_linear_617_26110)" style="mix-blend-mode:screen"/>
</g>
<defs>
<linearGradient id="paint0_linear_617_26110" x1="-64.7059" y1="17.6829" x2="-43.3322" y2="215.444" gradientUnits="userSpaceOnUse">
<stop stop-color="white" stop-opacity="0.4"/>
<stop offset="0.368352" stop-color="white" stop-opacity="0.01"/>
<stop offset="0.574372" stop-color="white" stop-opacity="0.01"/>
<stop offset="1" stop-color="white" stop-opacity="0.1"/>
</linearGradient>
<clipPath id="clip0_617_26110">
<rect width="200" height="200" rx="100" fill="white"/>
</clipPath>
</defs>
</svg>
