<svg width="200" height="200" viewBox="0 0 200 200" fill="none" xmlns="http://www.w3.org/2000/svg">
<g clip-path="url(#clip0_2172_658)">
<rect width="200" height="200" rx="100" fill="url(#paint0_linear_2172_658)"/>
<path d="M105 46.429C106.214 46.4647 107.357 46.5361 108.393 46.7147C109.464 46.8576 110.536 47.179 111.607 47.7147C113.276 48.4576 114.967 49.1484 116.679 49.7861C119.536 50.7504 121.571 51.5361 122.75 52.179C123.107 52.3219 123.393 52.7147 123.714 53.2504C123.893 53.6076 124.143 53.7861 124.429 53.8933C124.607 53.8933 124.786 54.0004 125.071 54.0719C125.643 54.2147 126.071 54.429 126.321 54.5719C126.679 54.8219 126.964 55.2147 127.179 55.7861C127.25 55.9447 127.377 56.0717 127.536 56.1433C127.964 56.3576 128.393 56.5004 128.857 56.5719C129.321 56.6433 129.679 56.8219 129.929 57.1433C130.071 57.3219 130.286 57.7147 130.5 58.2147L130.607 58.5361C130.679 58.7147 130.821 58.8933 130.964 58.9647L131.679 59.2147C132.214 59.3576 132.643 59.8219 133 60.6433L133.179 61.0719C133.286 61.2861 133.464 61.429 133.679 61.5361C134.607 61.8933 135.25 62.6076 135.679 63.5004C135.893 64.0004 136.179 64.3933 136.571 64.679C137.143 65.1076 137.643 65.7504 138 66.5361C138.107 66.7504 138.25 66.929 138.429 67.1076C139.286 67.8933 139.857 68.6433 140.107 69.2504C140.464 70.0718 140.893 70.8576 141.5 71.6076L141.679 71.9647L142.75 75.0719C142.75 75.2147 142.857 75.3219 142.964 75.429C143.393 75.7504 143.643 76.1433 143.679 76.6076C143.929 78.2147 144.107 80.1433 144.25 82.429C145.429 83.7147 146.679 85.3576 148.036 87.429C151 91.929 151.786 96.179 150.393 100.215C149.036 104.143 145.893 107.143 140.929 109.286C131.453 113.657 121.472 116.836 111.214 118.75L98.8929 120.75C98.1786 120.858 97.1786 120.965 95.7857 121C94.8057 121.031 93.8281 121.114 92.8572 121.25C90.7143 121.608 89.0357 121.643 87.75 121.358C84.185 120.535 80.5493 120.057 76.8929 119.929C76.8214 119.929 76.7857 120 76.7857 120.036V120.179C76.7857 120.25 76.7857 120.286 76.8571 120.286L86.1429 121.679C86.2857 121.679 86.3571 121.786 86.3214 121.929L85.8214 124.536C84.5124 127.879 83.7642 131.414 83.6071 135C83.5714 135.965 83.8571 137.143 84.4643 138.5C84.6786 138.965 84.7143 139.786 84.5 141C84.568 140.731 84.568 140.449 84.5 140.179C84.5 140.143 84.5 140.108 84.4286 140.108C84.3571 140.108 84.3214 140.108 84.3214 140.179L83.6071 142.286C83.5686 142.396 83.4955 142.49 83.3989 142.554C83.3023 142.619 83.1874 142.65 83.0714 142.643C82.0714 142.715 81.2143 143.072 80.5 143.715C79.752 144.454 79.0818 145.267 78.5 146.143L78.0714 146.786L74.9643 151.143C74.0172 150.712 73.1753 150.079 72.497 149.29C71.8186 148.501 71.32 147.573 71.0357 146.572C70.3861 144.581 70.4877 142.421 71.3214 140.5L71.6786 139.715C72.3695 138.383 72.7826 136.925 72.8929 135.429C73.3571 130.358 74.4286 125.429 76.1071 120.679C76.1359 120.617 76.1507 120.55 76.1507 120.483C76.1507 120.415 76.1359 120.348 76.1071 120.286C76.0754 120.216 76.0256 120.156 75.9627 120.112C75.8999 120.068 75.8265 120.042 75.75 120.036C74.4286 119.858 73.0357 119.572 71.5714 119.179C70.7857 118.965 68.5357 118.036 64.8214 116.465C64.499 116.259 64.1997 116.02 63.9286 115.75C63.6239 115.458 63.2742 115.217 62.8929 115.036C62.1585 114.744 61.4905 114.306 60.9286 113.75C60.6071 113.393 60.2143 112.786 59.7143 111.822C59.6071 111.608 59.4286 111.5 59.1786 111.536L57.2857 111.822C55.5697 113.284 53.4311 114.16 51.1823 114.32C48.9334 114.481 46.6922 113.918 44.7857 112.715C43.82 112.217 42.8436 111.741 41.8571 111.286C38.8681 108.95 36.795 105.638 36 101.929C35.7857 99.4647 35.6786 97.7147 35.7143 96.679C35.7857 95.0361 36.1429 93.4647 36.7857 92.0004C37.5 90.2147 38 88.929 38.2857 88.0719C38.3534 87.8739 38.4775 87.7001 38.6429 87.5719C40.9286 85.7147 43.2143 84.1076 45.5357 82.7504C45.7958 82.5774 46.0868 82.4561 46.3929 82.3933C46.6429 82.3933 47.0714 82.2861 47.6071 82.179C49.5357 81.7861 51.0357 81.6433 52.0357 81.7504C52.2143 81.7504 52.3929 81.8576 52.5 82.0004C53.2143 82.6433 53.9643 83.0004 54.8571 83.0004C55.0357 83.0004 55.1071 82.929 55.1429 82.7504L55.5 80.0719C55.5357 79.929 55.6429 79.7861 55.7857 79.7147L56.3571 79.3576C56.4129 79.3303 56.4614 79.2901 56.4986 79.2405C56.5359 79.1908 56.5608 79.133 56.5714 79.0719L57.4286 73.0004C57.4286 72.8576 57.5357 72.7147 57.6786 72.6433L58.8929 71.929C58.9588 71.8867 59.009 71.824 59.0357 71.7504L59.7857 69.8933C59.8559 69.736 59.9668 69.6003 60.1071 69.5004C60.6786 69.0718 61.1786 68.2504 61.6786 67.0004L61.9286 66.3576C62.0039 66.2133 62.1144 66.0904 62.25 66.0004C62.8214 65.5719 63.25 64.929 63.5357 64.0004L63.75 63.3219C63.7736 63.2466 63.8214 63.1813 63.886 63.136C63.9506 63.0908 64.0284 63.0682 64.1071 63.0719L65.3214 62.9647C65.6429 62.929 65.8214 62.7504 65.8571 62.429L66.1429 60.5004C66.1429 60.2861 66.2857 60.179 66.4643 60.179L68.4286 60.0004C68.6786 60.0004 68.7857 59.8576 68.8571 59.6433L69.1429 57.5004C69.1786 57.179 69.3571 57.0004 69.6786 57.0004L72.1071 56.7504C72.2857 56.7504 72.3929 56.6433 72.4286 56.4647L72.6429 54.8576C72.6786 54.5719 72.8571 54.429 73.1786 54.429C74.2857 54.4647 75 54.429 75.3214 54.2147C75.3874 54.1779 75.4441 54.1267 75.4874 54.0648C75.5307 54.003 75.5594 53.9321 75.5714 53.8576L75.8929 52.1076C75.9643 51.7504 76.1786 51.5004 76.5714 51.4647C77.8929 51.3219 79 51.0719 79.9643 50.679C81.2797 50.1455 82.643 49.7389 84.0357 49.4647C84.2198 49.4078 84.3989 49.3362 84.5714 49.2504C85.8571 48.679 86.8214 48.3219 87.4286 48.179C87.7857 48.1076 88.5 47.8219 89.6071 47.2861C90.1786 47.0004 91.1071 46.8219 92.3214 46.7147C95.4286 46.4647 99.6429 46.3576 105.036 46.4647L105 46.429ZM108.214 122.572C107.571 126.5 106.964 129.465 106.429 131.5C105.683 134.411 104.477 137.184 102.857 139.715C101.714 141.429 100.286 142.75 98.5357 143.75C97.4643 144.393 95.5714 145.179 92.9643 146.072L91.6071 146.536C89.4643 147.322 87.2857 148.679 85.1429 150.608C85.0975 150.654 85.0391 150.686 84.9754 150.699C84.9116 150.711 84.8455 150.705 84.7857 150.679L83.7143 150.108C83.4856 149.455 83.4182 148.757 83.5177 148.073C83.6172 147.389 83.8807 146.739 84.2857 146.179C85.5714 144.286 86.9643 143.25 88.4286 143.072L92.3572 142.5C92.8572 142.429 93.1786 142.036 93.3214 141.358C94.1071 137.393 94.3929 132.715 94.2857 127.358C94.2857 126.858 94.2857 126.072 94.3929 124.965C94.5 123.822 94.5357 122.965 94.5357 122.393L98.1071 122.286L108.25 122.572H108.214Z" fill="url(#paint1_linear_2172_658)"/>
<path d="M93.2856 103.036L91.4999 102.786C91.357 102.786 91.3213 102.714 91.3927 102.572C92.3213 100.929 92.9284 99.143 93.2499 97.2145L104.178 97.1787C104.357 97.1787 104.428 97.1073 104.428 96.9287V94.143C104.428 93.9645 104.5 93.8573 104.714 93.8573H108.893C109.143 93.8573 109.286 93.7502 109.321 93.5002L109.678 91.0002C109.714 90.7502 109.893 90.5716 110.178 90.5716L111.286 90.4645C111.643 90.4287 111.786 90.2502 111.821 89.893C112.036 85.4287 112.036 81.2502 111.821 77.4645C111.821 77.2502 111.678 77.1073 111.464 77.1073H109.857C109.571 77.1073 109.393 77.0002 109.393 76.6787V74.1787C109.393 73.9645 109.321 73.8573 109.107 73.8573H103.928C103.714 73.8573 103.607 73.7502 103.607 73.5002V70.1073C103.607 69.893 103.536 69.7859 103.321 69.7859H89.9999C89.7141 69.7859 89.5713 69.9287 89.5713 70.2145V73.643L87.2856 73.5716C87.2165 73.5703 87.1486 73.5536 87.0868 73.5227C87.025 73.4918 86.9709 73.4475 86.9284 73.393C86.4251 72.8514 86.0257 72.2219 85.7499 71.5359C85.2856 70.3216 85.0356 69.0359 84.8927 67.6787C84.7141 67.1787 84.9641 66.9287 85.6427 66.8573C87.357 66.7145 89.2141 66.6073 91.1427 66.6073C91.3213 66.6073 91.4284 66.5002 91.4284 66.3216V64.893C91.4284 64.643 91.5356 64.5359 91.8213 64.5359H106.928C107.178 64.5359 107.321 64.643 107.357 64.893L107.428 65.9645C107.428 66.1073 107.536 66.2145 107.714 66.2145L111.393 66.7859C111.536 66.7859 111.678 66.8573 111.75 67.0002C111.821 67.0716 111.928 67.2145 112 67.4287C112.107 67.7859 112.321 68.0002 112.536 68.0359C113.286 68.1787 113.964 68.3573 114.428 68.5002C114.571 68.5359 114.643 68.6073 114.714 68.7502L115.107 69.393C115.214 69.5716 115.321 69.643 115.5 69.6787C116.25 69.7859 116.643 70.2502 116.714 71.1073C116.786 71.6787 117.071 72.0002 117.643 72.0716C118.143 72.143 118.428 72.4287 118.607 72.8573C118.714 73.2145 118.893 73.5002 119.143 73.6073C119.321 73.7145 119.428 73.8573 119.5 74.0716C119.75 75.2145 119.928 76.5716 120.107 78.2502C120.107 78.6073 120.321 78.8216 120.678 78.893C121 78.9645 121.178 79.1788 121.214 79.6073C121.607 83.2859 121.571 86.9645 121.036 90.5716C121.036 90.7502 120.964 90.8573 120.821 90.9287L120.357 91.2145C120.279 91.2585 120.213 91.3203 120.163 91.3947C120.113 91.4692 120.082 91.5542 120.071 91.643L119.428 95.9288C119.428 96.2145 119.25 96.3573 118.964 96.393L118 96.4645C117.946 96.4673 117.893 96.4856 117.849 96.5173C117.805 96.5489 117.77 96.5925 117.75 96.643L117.25 97.7145C117.2 97.8255 117.111 97.9144 117 97.9645C115.643 98.6073 114.214 98.9645 112.714 99.0002C112.5 99.0002 112.357 99.1073 112.286 99.3216C112.143 99.6787 112.071 100.25 112.107 100.929C112.107 101.179 112 101.322 111.75 101.357L107.893 101.714C107.714 101.714 107.607 101.822 107.536 102.036L107.464 102.607C107.464 102.822 107.321 102.929 107.107 102.929L93.2856 103.036Z" fill="#07112C"/>
<path d="M84.8935 67.6785C85.0007 69.0356 85.2864 70.3213 85.7507 71.5356C85.965 72.1428 86.3578 72.7499 86.9293 73.3927C87.0007 73.4999 87.1435 73.5356 87.2864 73.5713L89.6078 73.6428L85.3578 73.8928C85.215 73.8928 85.1078 73.9999 85.0721 74.1785L84.8221 75.857C84.8141 75.9607 84.776 76.0599 84.7126 76.1423C84.6492 76.2248 84.5632 76.287 84.465 76.3213L83.3221 76.7142C83.1696 76.7566 83.0334 76.844 82.9315 76.9651C82.8295 77.0862 82.7665 77.2352 82.7507 77.3927C82.5364 78.9999 82.3935 80.7499 82.4293 82.5713C82.465 85.7856 82.5364 88.3927 82.6078 90.4642C82.6078 90.7142 82.7507 90.8213 82.965 90.8213H84.9293C85.1078 90.8213 85.215 90.9285 85.215 91.1427V93.7142C85.215 93.8927 85.3221 93.9999 85.5007 93.9999H89.1435C89.2864 93.9999 89.3578 94.0713 89.3578 94.2142V96.9285C89.3578 97.107 89.465 97.2142 89.6435 97.2142H93.2507C92.9468 99.094 92.3184 100.907 91.3935 102.571C91.3221 102.714 91.3936 102.786 91.5007 102.786L93.2864 103.036L87.465 102.821C87.2864 102.821 87.215 102.714 87.1793 102.571L87.1078 101.678C87.1078 101.464 86.965 101.321 86.7507 101.321L82.8221 100.714C82.7558 100.704 82.6938 100.675 82.6433 100.63C82.5928 100.586 82.5557 100.528 82.5364 100.464L82.1078 99.1427C82.0364 98.9999 81.965 98.9285 81.8221 98.9642C80.9369 99.0838 80.0399 98.8531 79.3221 98.3213C79.1661 98.1964 78.9824 98.1106 78.7864 98.0713L77.8221 97.9285C77.6078 97.8927 77.5007 97.7856 77.465 97.5713L77.3935 96.2499C77.3578 95.9999 77.215 95.857 76.965 95.8213L76.1793 95.6785C75.965 95.6785 75.8578 95.5356 75.8221 95.3213L75.3935 90.3213C75.389 90.2663 75.3634 90.2151 75.3221 90.1785C75.1435 90.0713 74.8935 90.0356 74.5364 90.0713C74.3578 90.107 74.2507 89.9999 74.215 89.8213C73.9395 86.518 73.9276 83.198 74.1793 79.8928C74.1793 79.3928 74.5007 79.107 75.0364 78.9642C75.3578 78.8928 75.5007 78.7142 75.5364 78.4285C75.6078 77.5713 75.8221 76.2856 76.1793 74.4999C76.2507 74.2142 76.7507 73.5713 77.6793 72.607C77.99 72.3401 78.3559 72.145 78.7507 72.0356L79.1793 71.857C79.2711 71.8171 79.3536 71.7584 79.4213 71.6845C79.4889 71.6107 79.5403 71.5235 79.5721 71.4285L80.0364 70.107C80.0569 70.031 80.0928 69.9601 80.142 69.8986C80.1911 69.8372 80.2525 69.7865 80.3221 69.7499L84.8935 67.6785Z" fill="#142142"/>
<path d="M93.2501 97.2145H89.6787C89.4644 97.2145 89.393 97.1073 89.393 96.9287V94.2145C89.393 94.0716 89.2859 94.0002 89.143 94.0002H85.5001C85.3216 94.0002 85.2144 93.893 85.2144 93.7145V91.143C85.2144 90.9287 85.1073 90.8573 84.9287 90.8573H83.0001C82.7501 90.8573 82.643 90.7145 82.6073 90.5002L82.4287 82.6073C82.4287 80.7502 82.5359 79.0359 82.7859 77.393C82.7859 77.0359 83.0001 76.8216 83.3216 76.7145L84.4644 76.3216C84.6787 76.2502 84.8216 76.1073 84.8216 75.8573L85.0716 74.1787C85.1073 74.0002 85.2144 73.893 85.393 73.893L89.6073 73.643V70.2145C89.6073 69.9287 89.7144 69.7859 90.0001 69.7859H103.322C103.536 69.7859 103.607 69.893 103.607 70.1073V73.5359C103.607 73.7502 103.714 73.8573 103.964 73.8573H109.107C109.322 73.8573 109.429 73.9645 109.429 74.1787V76.6787C109.429 77.0002 109.572 77.143 109.857 77.143H111.464C111.679 77.143 111.822 77.2502 111.822 77.4645C112.036 81.2502 112.036 85.4287 111.822 89.893C111.822 90.2502 111.643 90.4287 111.286 90.4645L110.179 90.5716C109.893 90.5716 109.714 90.7502 109.679 91.0359L109.322 93.5002C109.322 93.7502 109.143 93.8573 108.893 93.8573H104.714C104.5 93.8573 104.429 93.9645 104.429 94.143V96.9287C104.429 97.1073 104.357 97.1787 104.179 97.1787L93.2501 97.2145Z" fill="#3AD5F0"/>
<path d="M101.035 78.6787H93.3923C93.2976 78.6787 93.2067 78.7163 93.1398 78.7833C93.0728 78.8503 93.0352 78.9411 93.0352 79.0358V88.7859C93.0352 88.9644 93.2137 89.143 93.3923 89.143H101.035C101.13 89.143 101.221 89.1054 101.288 89.0384C101.355 88.9714 101.392 88.8806 101.392 88.7859V79.0358C101.392 78.9411 101.355 78.8503 101.288 78.7833C101.221 78.7163 101.13 78.6787 101.035 78.6787Z" fill="#07112C"/>
<path d="M125.751 119.642L117.144 120.607C116.965 120.607 116.822 120.785 116.787 121.035L116.894 121.107C116.965 121.178 117.001 121.25 116.965 121.321C116.325 124.416 116.701 127.635 118.037 130.5C119.108 133.214 120.18 135.821 121.251 138.321C121.822 139.642 122.108 140.964 122.108 142.285C122.065 143.815 121.801 145.331 121.322 146.785C120.965 148.214 120.608 149.214 120.251 149.785C119.966 150.246 119.573 150.63 119.107 150.903C118.64 151.177 118.113 151.333 117.572 151.357C117.215 150.75 117.001 150.035 116.93 149.214C116.93 148.714 116.93 147.964 117.001 147L117.072 145.535C117.074 145.466 117.058 145.397 117.027 145.335C116.996 145.272 116.95 145.219 116.894 145.178C116.843 145.141 116.785 145.115 116.723 145.103C116.662 145.09 116.598 145.092 116.537 145.107C115.537 145.285 114.822 144.75 114.394 143.392C114.037 142.357 113.965 141.321 114.108 140.285C114.144 139.928 114.287 139.464 114.537 138.857L114.787 138.142C115.073 136.216 115.133 134.262 114.965 132.321C114.72 129.459 114.339 126.611 113.822 123.785C113.68 123 113.465 122.357 113.108 121.821C111.725 121.76 110.344 121.664 108.965 121.535C105.339 121.192 101.686 121.252 98.0724 121.714C97.8581 121.714 97.7867 121.857 97.8581 122.071C97.8581 122.142 97.9653 122.214 98.1081 122.285L94.5367 122.392L87.2867 121.857C86.9653 121.821 86.751 121.964 86.6438 122.25L85.8224 124.535L86.3224 121.928C86.3224 121.785 86.3224 121.678 86.1438 121.678L76.8581 120.285C76.7867 120.285 76.751 120.25 76.751 120.178V120.035L76.8938 119.964C80.5491 120.08 84.1848 120.546 87.751 121.357C89.0367 121.642 90.751 121.607 92.8224 121.25C93.4653 121.142 94.4653 121.071 95.7867 121C97.1795 120.964 98.1796 120.857 98.8938 120.75L111.215 118.75C121.473 116.835 131.454 113.656 140.93 109.285C145.894 107.142 149.037 104.142 150.358 100.214C151.787 96.1782 151.001 91.9282 148.037 87.3925C146.68 85.3568 145.43 83.7139 144.251 82.4282C146.037 82.071 148.037 81.821 150.251 81.821C151.751 81.821 153.43 82.2496 155.251 83.1782C156.894 84.0353 158.287 85.0353 159.43 86.2496C162.067 89.067 163.721 92.6633 164.144 96.4996C164.465 98.821 164.215 101.142 163.43 103.464C162.527 105.913 161.302 108.231 159.787 110.357C157.418 112.7 154.289 114.119 150.965 114.357C149.897 114.456 148.824 114.504 147.751 114.5C146.787 114.5 145.822 114.321 144.822 114.035C142.829 113.466 140.902 112.688 139.072 111.714C138.822 111.571 138.572 111.642 138.358 111.857C137.644 112.821 136.858 113.642 136.072 114.357C135.01 115.229 133.832 115.95 132.572 116.5L131.215 117.428C129.608 118.607 127.822 119.357 125.751 119.642Z" fill="#B0B5EE"/>
<path d="M125.75 119.643L122.25 120.429C121.964 120.5 121.893 120.679 121.893 120.964L122.143 122C123.107 125.107 123.75 127.786 124 130.036C124.357 132.821 124.572 135.25 124.714 137.25C124.75 137.821 125.214 138.893 126.143 140.464C126.679 141.464 127.072 142.75 127.357 144.393C127.714 146.429 127.357 148.429 126.286 150.464C125.322 152.107 123.964 153.036 122.143 153.25C120.322 153.464 118.786 152.857 117.572 151.357C118.106 151.328 118.626 151.169 119.086 150.896C119.546 150.622 119.933 150.241 120.214 149.786C120.815 148.693 121.237 147.512 121.464 146.286C121.893 144.714 122.107 143.393 122.107 142.286C122.107 140.964 121.822 139.607 121.25 138.321C120.179 135.821 119.107 133.214 118.036 130.464C116.705 127.611 116.329 124.405 116.964 121.321C116.964 121.25 116.964 121.179 116.893 121.107L116.75 121.036C116.822 120.786 116.964 120.643 117.143 120.607L125.75 119.643ZM113.072 121.821L109.5 122.179C109.143 122.214 109 122.393 109 122.714L108.964 134.536C108.964 130.536 108.714 126.536 108.25 122.571L98.1074 122.286C97.9645 122.214 97.8574 122.143 97.8574 122.036C97.7859 121.857 97.8574 121.75 98.0716 121.714C101.643 121.25 105.286 121.214 108.964 121.536C110.322 121.679 111.679 121.786 113.072 121.821Z" fill="#9A9CDD"/>
<path d="M108.928 134.536L109.75 142.857C109.785 143.357 110.035 143.786 110.464 144.036L112.678 145.429L113 145.679C114.285 147.107 114.785 148.822 114.464 150.822C114.214 152.322 113.25 153.179 111.5 153.465C109.821 153.715 108 153.536 106.035 152.929C105.194 152.704 104.424 152.267 103.799 151.661C103.174 151.055 102.714 150.299 102.464 149.465C102.418 149.301 102.327 149.153 102.201 149.039C102.074 148.925 101.918 148.85 101.75 148.822C100.857 148.643 99.7853 148.822 98.5353 149.357C95.8924 150.465 93.9639 151.143 92.7853 151.393C90.6424 151.822 88.4996 151.929 86.3567 151.822C84.7853 151.715 83.8924 151.107 83.7139 150.107L84.7853 150.679C84.8924 150.75 85.0353 150.715 85.1424 150.607C87.3701 148.501 90.0614 146.947 92.9996 146.072C94.905 145.45 96.7564 144.674 98.5353 143.75C100.285 142.75 101.714 141.429 102.821 139.715C104.441 137.184 105.647 134.411 106.392 131.5C106.964 129.465 107.571 126.5 108.25 122.572C108.714 126.536 108.964 130.536 108.964 134.536H108.928Z" fill="#B0B5EE"/>
<path d="M84.501 141C84.3549 141.802 83.9832 142.545 83.4296 143.143C83.329 143.25 83.2074 143.335 83.0725 143.393C82.7353 143.539 82.3674 143.6 82.001 143.571C81.7153 143.571 81.6082 143.679 81.6082 143.929V144.357C81.5725 145.679 81.5011 146.643 81.3939 147.214C81.2511 148.143 80.9296 149 80.4296 149.821C80.3542 149.955 80.2577 150.076 80.1439 150.179C78.5725 151.607 76.8225 151.929 74.9653 151.143C76.1572 149.477 77.3477 147.811 78.5368 146.143C79.3582 144.929 80.0368 144.107 80.5011 143.714C81.2153 143.071 82.0725 142.714 83.0725 142.643C83.3225 142.643 83.501 142.536 83.6082 142.286L84.3225 140.143L84.4296 140.107C84.4653 140.107 84.501 140.107 84.501 140.179C84.5725 140.393 84.5725 140.643 84.501 141Z" fill="#9A9CDD"/>
<g opacity="0.5" style="mix-blend-mode:plus-lighter">
<path fill-rule="evenodd" clip-rule="evenodd" d="M100 0C155.228 0 200 44.7715 200 100C200 155.228 155.228 200 100 200C44.7715 200 0 155.228 0 100C0 44.7715 44.7715 0 100 0ZM100 5C47.5329 5 5 47.5329 5 100C5 152.467 47.5329 195 100 195C152.467 195 195 152.467 195 100C195 47.5329 152.467 5 100 5Z" fill="url(#paint2_linear_2172_658)" style="mix-blend-mode:screen"/>
</g>
</g>
<defs>
<linearGradient id="paint0_linear_2172_658" x1="37.2143" y1="34.6786" x2="243.393" y2="271.5" gradientUnits="userSpaceOnUse">
<stop stop-color="#1A1E21"/>
<stop offset="1" stop-color="#06060A"/>
</linearGradient>
<linearGradient id="paint1_linear_2172_658" x1="43.1071" y1="93.3576" x2="140.5" y2="116.572" gradientUnits="userSpaceOnUse">
<stop stop-color="#F2F2FC"/>
<stop offset="1" stop-color="#BCC2F6"/>
</linearGradient>
<linearGradient id="paint2_linear_2172_658" x1="-64.7059" y1="17.6829" x2="-43.3322" y2="215.444" gradientUnits="userSpaceOnUse">
<stop stop-color="white" stop-opacity="0.4"/>
<stop offset="0.368352" stop-color="white" stop-opacity="0.01"/>
<stop offset="0.574372" stop-color="white" stop-opacity="0.01"/>
<stop offset="1" stop-color="white" stop-opacity="0.1"/>
</linearGradient>
<clipPath id="clip0_2172_658">
<rect width="200" height="200" rx="100" fill="white"/>
</clipPath>
</defs>
</svg>
